<?xml version="1.0" standalone="no"?>
<!DOCTYPE svg PUBLIC "-//W3C//DTD SVG 20010904//EN"
 "http://www.w3.org/TR/2001/REC-SVG-20010904/DTD/svg10.dtd">
<svg version="1.0" xmlns="http://www.w3.org/2000/svg"
 width="1920.000000pt" height="303.000000pt" viewBox="0 0 1920.000000 303.000000"
 preserveAspectRatio="xMidYMid meet">

<g transform="translate(0.000000,303.000000) scale(0.100000,-0.100000)"
fill="#000000" stroke="none">
<path d="M0 2796 l0 -234 98 -84 c187 -161 314 -256 548 -410 427 -281 897
-522 1494 -765 943 -384 2124 -704 3370 -913 989 -166 1944 -263 3070 -312
372 -16 1648 -16 2020 0 1697 74 3167 274 4562 623 200 50 246 62 503 134 745
210 1524 504 2105 795 530 266 1023 587 1353 883 l77 69 0 224 0 224 -9600 0
-9600 0 0 -234z"/>
</g>
</svg>
